<svg xmlns="http://www.w3.org/2000/svg" viewBox="0 0 72 72"><title>Icon-3</title><g id="background"><path d="M54,18A36,36,0,0,0,28.54,79.46L79.46,28.54A35.92,35.92,0,0,0,54,18Z" transform="translate(-18 -18)" style="fill:#fff"/><path d="M54,90A36,36,0,0,0,79.46,28.54L28.54,79.46A35.92,35.92,0,0,0,54,90Z" transform="translate(-18 -18)" style="fill:#f76d22"/></g><g id="foreground"><path d="M55.17,43.44H49.6v9.88h5.57c3.43,0,6.19-1.92,6.19-4.94S58.6,43.44,55.17,43.44Z" transform="translate(-18 -18)" style="fill:#16a379"/><path d="M54,18A36,36,0,1,0,90,54,36,36,0,0,0,54,18Zm7.25,54.62-6.45-12H49.6v12H38.32V35.38h19c9.1,0,15.29,5.2,15.29,13a11.3,11.3,0,0,1-7.7,10.77l8.74,13.47Z" transform="translate(-18 -18)" style="fill:#16a379"/></g></svg>