<svg xmlns="http://www.w3.org/2000/svg" viewBox="0 0 72 72"><title>Icon-round</title><g id="Background"><path d="M18.45,48.3,72.93,84.62a36.63,36.63,0,0,0,6.53-5.16L28.54,28.54A36,36,0,0,0,18.45,48.3Z" transform="translate(-18 -18)" style="fill:#e60012"/><path d="M48.3,18.45A36,36,0,0,0,28.54,28.54L79.46,79.46a36.63,36.63,0,0,0,5.16-6.53Z" transform="translate(-18 -18)" style="fill:#f92f3d"/><path d="M19,45.51A36,36,0,0,0,81.78,76.89Z" transform="translate(-18 -18)" style="fill:#b7000d"/><path d="M54,18a36,36,0,0,0-8.49,1L76.89,81.78A36,36,0,0,0,54,18Z" transform="translate(-18 -18)" style="fill:#fa5a65"/></g><g id="Foreground"><path d="M59,48a5,5,0,1,0-5,5,5.23,5.23,0,0,0,1.14-.14l3.72-3.72A5.23,5.23,0,0,0,59,48Z" transform="translate(-18 -18)" style="fill:#0190ff"/><path d="M45.45,62.55C42.54,57.84,40,52.47,40,48L23.38,72.93a36.63,36.63,0,0,0,5.16,6.53Z" transform="translate(-18 -18)" style="fill:#0190ff"/><path d="M48.62,35.07a14,14,0,0,1,17.81,6.5l13-13A36,36,0,0,0,59.7,18.45Z" transform="translate(-18 -18)" style="fill:#0190ff"/><path d="M45.45,62.55,28.54,79.46a36.63,36.63,0,0,0,6.53,5.16L52.9,72.73A90.72,90.72,0,0,1,45.45,62.55Z" transform="translate(-18 -18)" style="fill:#0068b7"/><path d="M66.43,41.57A13.92,13.92,0,0,1,68,48c0,7-6.21,16.2-10.35,21.57L89.55,48.3A36,36,0,0,0,79.46,28.54Z" transform="translate(-18 -18)" style="fill:#0068b7"/><path d="M58.86,49.14l-3.72,3.72A5,5,0,0,0,58.86,49.14Z" transform="translate(-18 -18)" style="fill:#0068b7"/><path d="M54,74s-.42-.46-1.1-1.27L35.07,84.62A36,36,0,0,0,90,54a36.94,36.94,0,0,0-.45-5.7L57.65,69.57C55.57,72.26,54,74,54,74Z" transform="translate(-18 -18)" style="fill:#00508e"/><path d="M40,48A14,14,0,0,1,54,34c.33,0,.65,0,1,0l7.51-15A36,36,0,0,0,31.11,81.78L43,58.1C41.23,54.65,40,51.1,40,48Z" transform="translate(-18 -18)" style="fill:#15a6ff"/></g></svg>