<svg id="图层_1" data-name="图层 1" xmlns="http://www.w3.org/2000/svg" xmlns:xlink="http://www.w3.org/1999/xlink" viewBox="0 0 12.42 6"><defs><linearGradient id="未命名的渐变_12" x1="4.01" y1="5.11" x2="4.01" y2="11.01" gradientUnits="userSpaceOnUse"><stop offset="0" stop-color="#2578b5"/><stop offset="1" stop-color="#004d85"/></linearGradient><linearGradient id="未命名的渐变_12-2" x1="8.06" y1="5.12" x2="8.06" y2="10.99" xlink:href="#未命名的渐变_12"/><linearGradient id="未命名的渐变_12-3" x1="12.25" y1="5.08" x2="12.25" y2="10.97" xlink:href="#未命名的渐变_12"/></defs><title>logo</title><path d="M3,10.83a1.86,1.86,0,0,1-.71-.48,1.83,1.83,0,0,1-.39-.66,2.19,2.19,0,0,1-.14-.77V7.11a2.61,2.61,0,0,1,.08-.64,2.06,2.06,0,0,1,.25-.57,1.93,1.93,0,0,1,.43-.47,1.91,1.91,0,0,1,.64-.31A2.86,2.86,0,0,1,4,5a2.75,2.75,0,0,1,.84.12,1.82,1.82,0,0,1,.62.32,1.85,1.85,0,0,1,.41.47,2,2,0,0,1,.24.58,2.59,2.59,0,0,1,.07.63V8.91a2.56,2.56,0,0,1-.07.62,2.06,2.06,0,0,1-.25.57,1.67,1.67,0,0,1-.42.46,1.76,1.76,0,0,1-.61.32A2.73,2.73,0,0,1,4,11,2.85,2.85,0,0,1,3,10.83ZM4.47,10a.86.86,0,0,0,.3-.19A.92.92,0,0,0,5,9.57a1.24,1.24,0,0,0,.1-.31,1.67,1.67,0,0,0,0-.32V7.07a1.7,1.7,0,0,0,0-.4,1.31,1.31,0,0,0-.15-.37A.78.78,0,0,0,4.57,6,1.19,1.19,0,0,0,4,5.89,1.23,1.23,0,0,0,3.6,6a.86.86,0,0,0-.31.19,1.15,1.15,0,0,0-.19.28A1.34,1.34,0,0,0,3,6.75a1.66,1.66,0,0,0,0,.32V8.94a1.66,1.66,0,0,0,0,.32,1.24,1.24,0,0,0,.1.31,1,1,0,0,0,.2.28,1,1,0,0,0,.3.19,1.18,1.18,0,0,0,.43.07A1.11,1.11,0,0,0,4.47,10Z" transform="translate(-1.79 -5)" style="fill:url(#未命名的渐变_12)"/><path d="M7.47,9.8H8.65v1.12H7.47Z" transform="translate(-1.79 -5)" style="fill:url(#未命名的渐变_12-2)"/><path d="M10.31,10.09h1.43V6l-1.34.21-.1-.86,1.81-.28h.81v5h1.29v.83h-3.9Z" transform="translate(-1.79 -5)" style="fill:url(#未命名的渐变_12-3)"/></svg>